<?xml version="1.0" encoding="utf-8"?>
<!-- Generator: Adobe Illustrator 16.0.0, SVG Export Plug-In . SVG Version: 6.00 Build 0)  -->
<!DOCTYPE svg PUBLIC "-//W3C//DTD SVG 1.1//EN" "http://www.w3.org/Graphics/SVG/1.1/DTD/svg11.dtd">
<svg version="1.1" id="Layer_1" xmlns="http://www.w3.org/2000/svg" xmlns:xlink="http://www.w3.org/1999/xlink" x="0px" y="0px"
	 width="200px" height="200px" viewBox="0 0 200 200" enable-background="new 0 0 200 200" xml:space="preserve">
<line fill="#004987" stroke="#004987" stroke-width="0.25" x1="-180" y1="200" x2="20" y2="0"/>
<line fill="#004987" stroke="#004987" stroke-width="0.25" x1="-160" y1="200" x2="40" y2="0"/>
<line fill="#004987" stroke="#004987" stroke-width="0.25" x1="-140" y1="200" x2="60" y2="0"/>
<line fill="#004987" stroke="#004987" stroke-width="0.25" x1="-120" y1="200" x2="80" y2="0"/>
<line fill="#004987" stroke="#004987" stroke-width="0.25" x1="-100" y1="200" x2="100" y2="0"/>
<line fill="#004987" stroke="#004987" stroke-width="0.25" x1="-80" y1="200" x2="120" y2="0"/>
<line fill="#004987" stroke="#004987" stroke-width="0.25" x1="-60" y1="200" x2="140" y2="0"/>
<line fill="#004987" stroke="#004987" stroke-width="0.25" x1="-40" y1="200" x2="160" y2="0"/>
<line fill="#004987" stroke="#004987" stroke-width="0.25" x1="-20" y1="200" x2="180" y2="0"/>
<line fill="#004987" stroke="#004987" stroke-width="0.25" x1="0" y1="200" x2="200" y2="0"/>
<line fill="#004987" stroke="#004987" stroke-width="0.25" x1="20" y1="200" x2="220" y2="0"/>
<line fill="#004987" stroke="#004987" stroke-width="0.25" x1="40" y1="200" x2="240" y2="0"/>
<line fill="#004987" stroke="#004987" stroke-width="0.25" x1="60" y1="200" x2="260" y2="0"/>
<line fill="#004987" stroke="#004987" stroke-width="0.25" x1="80" y1="200" x2="280" y2="0"/>
<line fill="#004987" stroke="#004987" stroke-width="0.25" x1="100" y1="200" x2="300" y2="0"/>
<line fill="#004987" stroke="#004987" stroke-width="0.25" x1="120" y1="200" x2="320" y2="0"/>
<line fill="#004987" stroke="#004987" stroke-width="0.25" x1="140" y1="200" x2="340" y2="0"/>
<line fill="#004987" stroke="#004987" stroke-width="0.25" x1="160" y1="200" x2="360" y2="0"/>
<line fill="#004987" stroke="#004987" stroke-width="0.25" x1="180" y1="200" x2="380" y2="0"/>
</svg>
